<svg width="166" height="167" viewBox="0 0 166 167" fill="none" xmlns="http://www.w3.org/2000/svg">
<path d="M71.4482 6.70964C78.5907 2.56106 87.4093 2.56105 94.5518 6.70964L143.432 35.1006C150.519 39.2169 154.88 46.7934 154.88 54.9891V112.011C154.88 120.207 150.519 127.783 143.432 131.899L94.5518 160.29C87.4093 164.439 78.5907 164.439 71.4482 160.29L22.5681 131.899C15.4811 127.783 11.1199 120.207 11.1199 112.011V54.9892C11.1199 46.7934 15.4811 39.2169 22.568 35.1006L71.4482 6.70964Z" fill="#A8B2A5"/>
<mask id="mask0_1634_7983" style="mask-type:alpha" maskUnits="userSpaceOnUse" x="11" y="3" width="144" height="161">
<path d="M71.4482 6.70964C78.5907 2.56106 87.4093 2.56105 94.5518 6.70964L143.432 35.1006C150.519 39.2169 154.88 46.7934 154.88 54.9891V112.011C154.88 120.207 150.519 127.783 143.432 131.899L94.5518 160.29C87.4093 164.439 78.5907 164.439 71.4482 160.29L22.5681 131.899C15.4811 127.783 11.1199 120.207 11.1199 112.011V54.9892C11.1199 46.7934 15.4811 39.2169 22.568 35.1006L71.4482 6.70964Z" fill="#A8B2A5"/>
</mask>
<g mask="url(#mask0_1634_7983)">
<rect x="50.0828" y="27.3721" width="27.4932" height="27.4932" rx="6" transform="rotate(-7.04527 50.0828 27.3721)" fill="url(#paint0_linear_1634_7983)"/>
<rect x="31" y="63.6932" width="27.4932" height="27.4932" rx="6" transform="rotate(-12.4606 31 63.6932)" fill="url(#paint1_linear_1634_7983)"/>
<rect x="68.7361" y="58.5374" width="28.0033" height="28.0033" rx="6" fill="url(#paint2_linear_1634_7983)"/>
<rect x="87.269" y="24.6559" width="27.4932" height="27.4932" rx="6" transform="rotate(5.53475 87.269 24.6559)" fill="url(#paint3_linear_1634_7983)"/>
<rect x="107.51" y="57.8829" width="27.4932" height="27.4932" rx="6" transform="rotate(12.4572 107.51 57.8829)" fill="url(#paint4_linear_1634_7983)"/>
<g filter="url(#filter0_d_1634_7983)">
<path d="M196.5 113.899C93.3 54.3161 9.16667 89.0725 -20 113.899L77.5 198.899C160.167 195.391 299.7 173.481 196.5 113.899Z" fill="url(#paint5_linear_1634_7983)"/>
</g>
</g>
<g filter="url(#filter1_i_1634_7983)">
<circle cx="83" cy="117" r="19" fill="#A8B2A5"/>
</g>
<path d="M75.5 117.605L80.2872 122.761L90.5 111.761" stroke="white" stroke-width="4" stroke-linecap="round"/>
<defs>
<filter id="filter0_d_1634_7983" x="-40" y="57" width="293.07" height="157.899" filterUnits="userSpaceOnUse" color-interpolation-filters="sRGB">
<feFlood flood-opacity="0" result="BackgroundImageFix"/>
<feColorMatrix in="SourceAlpha" type="matrix" values="0 0 0 0 0 0 0 0 0 0 0 0 0 0 0 0 0 0 127 0" result="hardAlpha"/>
<feOffset dy="-4"/>
<feGaussianBlur stdDeviation="10"/>
<feComposite in2="hardAlpha" operator="out"/>
<feColorMatrix type="matrix" values="0 0 0 0 0.737137 0 0 0 0 0.760216 0 0 0 0 0.686362 0 0 0 1 0"/>
<feBlend mode="normal" in2="BackgroundImageFix" result="effect1_dropShadow_1634_7983"/>
<feBlend mode="normal" in="SourceGraphic" in2="effect1_dropShadow_1634_7983" result="shape"/>
</filter>
<filter id="filter1_i_1634_7983" x="64" y="98" width="38" height="42" filterUnits="userSpaceOnUse" color-interpolation-filters="sRGB">
<feFlood flood-opacity="0" result="BackgroundImageFix"/>
<feBlend mode="normal" in="SourceGraphic" in2="BackgroundImageFix" result="shape"/>
<feColorMatrix in="SourceAlpha" type="matrix" values="0 0 0 0 0 0 0 0 0 0 0 0 0 0 0 0 0 0 127 0" result="hardAlpha"/>
<feOffset dy="4"/>
<feGaussianBlur stdDeviation="4"/>
<feComposite in2="hardAlpha" operator="arithmetic" k2="-1" k3="1"/>
<feColorMatrix type="matrix" values="0 0 0 0 0.528623 0 0 0 0 0.560246 0 0 0 0 0.459051 0 0 0 0.3 0"/>
<feBlend mode="normal" in2="shape" result="effect1_innerShadow_1634_7983"/>
</filter>
<linearGradient id="paint0_linear_1634_7983" x1="63.8294" y1="27.3721" x2="63.8294" y2="54.8653" gradientUnits="userSpaceOnUse">
<stop stop-color="#E3E8D7"/>
<stop offset="1" stop-color="#D0D5C5"/>
</linearGradient>
<linearGradient id="paint1_linear_1634_7983" x1="44.7466" y1="63.6932" x2="44.7466" y2="91.1864" gradientUnits="userSpaceOnUse">
<stop stop-color="#E3E8D7"/>
<stop offset="1" stop-color="#D0D5C5"/>
</linearGradient>
<linearGradient id="paint2_linear_1634_7983" x1="82.7377" y1="58.5374" x2="82.7377" y2="86.5407" gradientUnits="userSpaceOnUse">
<stop stop-color="#E3E8D7"/>
<stop offset="1" stop-color="#D0D5C5"/>
</linearGradient>
<linearGradient id="paint3_linear_1634_7983" x1="101.016" y1="24.6559" x2="101.016" y2="52.1491" gradientUnits="userSpaceOnUse">
<stop stop-color="#E3E8D7"/>
<stop offset="1" stop-color="#D0D5C5"/>
</linearGradient>
<linearGradient id="paint4_linear_1634_7983" x1="121.257" y1="57.8829" x2="121.257" y2="85.3761" gradientUnits="userSpaceOnUse">
<stop stop-color="#E3E8D7"/>
<stop offset="1" stop-color="#D0D5C5"/>
</linearGradient>
<linearGradient id="paint5_linear_1634_7983" x1="106.535" y1="81" x2="106.535" y2="198.899" gradientUnits="userSpaceOnUse">
<stop stop-color="#D0D5C5"/>
<stop offset="1" stop-color="#F7F9F1"/>
</linearGradient>
</defs>
</svg>
