<svg width="166" height="167" viewBox="0 0 166 167" fill="none" xmlns="http://www.w3.org/2000/svg">
<path d="M71.4482 6.70964C78.5907 2.56106 87.4093 2.56105 94.5518 6.70964L143.432 35.1006C150.519 39.2169 154.88 46.7934 154.88 54.9891V112.011C154.88 120.207 150.519 127.783 143.432 131.899L94.5518 160.29C87.4093 164.439 78.5907 164.439 71.4482 160.29L22.5681 131.899C15.4811 127.783 11.1199 120.207 11.1199 112.011V54.9892C11.1199 46.7934 15.4811 39.2169 22.568 35.1006L71.4482 6.70964Z" fill="#A8B2A5"/>
<mask id="mask0_1634_8043" style="mask-type:alpha" maskUnits="userSpaceOnUse" x="11" y="3" width="144" height="161">
<path d="M71.4482 6.70964C78.5907 2.56106 87.4093 2.56105 94.5518 6.70964L143.432 35.1006C150.519 39.2169 154.88 46.7934 154.88 54.9891V112.011C154.88 120.207 150.519 127.783 143.432 131.899L94.5518 160.29C87.4093 164.439 78.5907 164.439 71.4482 160.29L22.5681 131.899C15.4811 127.783 11.1199 120.207 11.1199 112.011V54.9892C11.1199 46.7934 15.4811 39.2169 22.568 35.1006L71.4482 6.70964Z" fill="#A8B2A5"/>
</mask>
<g mask="url(#mask0_1634_8043)">
<circle cx="82.7337" cy="35.544" r="15.544" fill="url(#paint0_linear_1634_8043)"/>
<path d="M82.7705 57.5429C103.422 57.5429 120.307 73.6586 121.541 93.9999H44C45.234 73.6586 62.1188 57.5429 82.7705 57.5429Z" fill="url(#paint1_linear_1634_8043)"/>
<g filter="url(#filter1_d_1634_8043)">
<path d="M196.5 109.899C93.3 50.3161 9.16667 85.0725 -20 109.899L77.5 194.899C160.167 191.391 299.7 169.481 196.5 109.899Z" fill="url(#paint2_linear_1634_8043)"/>
</g>
</g>
<g filter="url(#filter2_i_1634_8043)">
<circle cx="83" cy="117" r="19" fill="#A8B2A5"/>
</g>
<path d="M75 117.844L80.1064 123L91 112" stroke="white" stroke-width="4" stroke-linecap="round"/>
<defs>
<filter id="filter1_d_1634_8043" x="-40" y="53" width="293.07" height="157.899" filterUnits="userSpaceOnUse" color-interpolation-filters="sRGB">
<feFlood flood-opacity="0" result="BackgroundImageFix"/>
<feColorMatrix in="SourceAlpha" type="matrix" values="0 0 0 0 0 0 0 0 0 0 0 0 0 0 0 0 0 0 127 0" result="hardAlpha"/>
<feOffset dy="-4"/>
<feGaussianBlur stdDeviation="10"/>
<feComposite in2="hardAlpha" operator="out"/>
<feColorMatrix type="matrix" values="0 0 0 0 0.737137 0 0 0 0 0.760216 0 0 0 0 0.686362 0 0 0 1 0"/>
<feBlend mode="normal" in2="BackgroundImageFix" result="effect1_dropShadow_1634_8043"/>
<feBlend mode="normal" in="SourceGraphic" in2="effect1_dropShadow_1634_8043" result="shape"/>
</filter>
<filter id="filter2_i_1634_8043" x="64" y="98" width="38" height="42" filterUnits="userSpaceOnUse" color-interpolation-filters="sRGB">
<feFlood flood-opacity="0" result="BackgroundImageFix"/>
<feBlend mode="normal" in="SourceGraphic" in2="BackgroundImageFix" result="shape"/>
<feColorMatrix in="SourceAlpha" type="matrix" values="0 0 0 0 0 0 0 0 0 0 0 0 0 0 0 0 0 0 127 0" result="hardAlpha"/>
<feOffset dy="4"/>
<feGaussianBlur stdDeviation="4"/>
<feComposite in2="hardAlpha" operator="arithmetic" k2="-1" k3="1"/>
<feColorMatrix type="matrix" values="0 0 0 0 0.528623 0 0 0 0 0.560246 0 0 0 0 0.459051 0 0 0 0.3 0"/>
<feBlend mode="normal" in2="shape" result="effect1_innerShadow_1634_8043"/>
</filter>
<linearGradient id="paint0_linear_1634_8043" x1="82.7337" y1="20" x2="82.7337" y2="51.0879" gradientUnits="userSpaceOnUse">
<stop stop-color="#EBF2DC"/>
<stop offset="1" stop-color="#DADFCF"/>
</linearGradient>
<linearGradient id="paint1_linear_1634_8043" x1="82.7705" y1="57.5429" x2="82.7705" y2="93.9999" gradientUnits="userSpaceOnUse">
<stop stop-color="#EBF2DC"/>
<stop offset="1" stop-color="#DADFCF"/>
</linearGradient>
<linearGradient id="paint2_linear_1634_8043" x1="106.535" y1="77" x2="106.535" y2="194.899" gradientUnits="userSpaceOnUse">
<stop stop-color="#D0D5C5"/>
<stop offset="1" stop-color="#F7F9F1"/>
</linearGradient>
</defs>
</svg>
