<svg width="46" height="37" viewBox="0 0 46 37" fill="none" xmlns="http://www.w3.org/2000/svg">
<path d="M37.0001 28.2942C37.0001 28.632 36.9215 28.9654 36.7705 29.2677L34.8236 28.2942C36.6379 29.2013 36.7604 29.2644 36.7685 29.2697L36.7641 29.2782C36.7641 29.2782 36.76 29.2866 36.7578 29.291C36.753 29.3001 36.7472 29.3108 36.7409 29.323C36.7278 29.3478 36.7121 29.3796 36.6919 29.4164C36.6514 29.4901 36.5948 29.5866 36.5239 29.7034C36.3822 29.937 36.1769 30.2519 35.9012 30.6195C35.3503 31.3539 34.5128 32.3109 33.3273 33.2591C30.9288 35.1781 27.1905 37.0001 21.7648 37.0001C16.339 37.0001 12.6008 35.1781 10.2023 33.2591C9.01686 32.3109 8.17927 31.3539 7.62836 30.6195C7.35271 30.2519 7.14749 29.937 7.00561 29.7034C6.93472 29.5866 6.87824 29.4901 6.83769 29.4164C6.81743 29.3796 6.80187 29.3478 6.78881 29.323C6.78243 29.3108 6.77649 29.3001 6.77181 29.291C6.76957 29.2866 6.76544 29.2782 6.76544 29.2782L6.76119 29.2718C6.76903 29.2666 6.89176 29.2013 8.70598 28.2942L6.75906 29.2677C6.60797 28.9654 6.52951 28.632 6.52951 28.2942V21.701L19.1228 28.6979C19.1798 28.7297 19.2383 28.7591 19.2971 28.7874L19.55 28.9084C19.6175 28.9406 19.6869 28.9724 19.7561 28.9998C21.2649 29.599 22.9732 29.4941 24.4068 28.6979L37.0001 21.701V28.2942ZM20.9615 0.153127C21.5632 -0.0858933 22.2464 -0.0447803 22.8212 0.274268L42.352 11.1247L44.503 12.2002L44.7666 12.3554C45.3497 12.7578 45.706 13.4258 45.706 14.1471V28.2942H41.353V15.5479L22.8212 25.8435C22.2464 26.1628 21.5632 26.2037 20.9615 25.9647L20.7083 25.8435L1.12022 14.9611C0.429343 14.5772 9.91821e-05 13.8492 9.91821e-05 13.0589C0.00022977 12.2686 0.429364 11.5404 1.12022 11.1566L20.7083 0.274268L20.9615 0.153127Z" fill="#FFFFFF"/>
</svg>
