<svg width="75" height="75" viewBox="0 0 75 75" fill="none" xmlns="http://www.w3.org/2000/svg">
<rect width="75" height="75" rx="37.5" fill="white" fill-opacity="0.3"/>
<path d="M51.6469 47.2942C51.6469 47.632 51.5684 47.9654 51.4173 48.2677L49.4705 47.2942C51.2848 48.2013 51.4073 48.2644 51.4154 48.2697L51.411 48.2782C51.411 48.2782 51.4069 48.2866 51.4047 48.291C51.3999 48.3001 51.394 48.3108 51.3877 48.323C51.3747 48.3478 51.359 48.3796 51.3388 48.4164C51.2983 48.4901 51.2417 48.5866 51.1707 48.7034C51.029 48.937 50.8238 49.2519 50.548 49.6195C49.9972 50.3539 49.1597 51.3109 47.9742 52.2591C45.5757 54.1781 41.8374 56.0001 36.4117 56.0001C30.9859 56.0001 27.2477 54.1781 24.8492 52.2591C23.6637 51.3109 22.8261 50.3539 22.2752 49.6195C21.9996 49.2519 21.7944 48.937 21.6525 48.7034C21.5816 48.5866 21.5251 48.4901 21.4846 48.4164C21.4643 48.3796 21.4487 48.3478 21.4357 48.323C21.4293 48.3108 21.4234 48.3001 21.4187 48.291C21.4164 48.2866 21.4123 48.2782 21.4123 48.2782L21.4081 48.2718C21.4159 48.2666 21.5386 48.2013 23.3528 47.2942L21.4059 48.2677C21.2548 47.9654 21.1764 47.632 21.1764 47.2942V40.701L33.7696 47.6979C33.8267 47.7297 33.8852 47.7591 33.944 47.7874L34.1969 47.9084C34.2644 47.9406 34.3338 47.9724 34.403 47.9998C35.9117 48.599 37.62 48.4941 39.0537 47.6979L51.6469 40.701V47.2942ZM35.6083 19.1531C36.2101 18.9141 36.8933 18.9552 37.4681 19.2743L56.9989 30.1247L59.1499 31.2002L59.4135 31.3554C59.9965 31.7578 60.3528 32.4258 60.3528 33.1471V47.2942H55.9999V34.5479L37.4681 44.8435C36.8933 45.1628 36.2101 45.2037 35.6083 44.9647L35.3552 44.8435L15.7671 33.9611C15.0762 33.5772 14.647 32.8492 14.647 32.0589C14.6471 31.2686 15.0762 30.5404 15.7671 30.1566L35.3552 19.2743L35.6083 19.1531Z" fill="#F0F4E8"/>
</svg>
