<svg width="56" height="23" viewBox="0 0 56 23" fill="none" xmlns="http://www.w3.org/2000/svg">
<g opacity="0.25">
<path d="M11.1818 22.9975V22.9625C11.1818 22.9166 11.1797 22.8729 11.1797 22.827C11.1797 10.2408 21.233 0 33.5888 0C45.9446 0 56.0001 10.2386 56.0001 22.827C56.0001 22.8707 56.0001 22.9144 55.9979 22.9581V22.9909L50.4187 22.9669L50.4209 22.8248C50.4209 13.3731 42.8696 5.68324 33.591 5.68324C24.3102 5.68324 16.761 13.3753 16.761 22.827L16.7632 22.9603L11.1818 22.9975Z" fill="#304642"/>
<path d="M0.0694345 0.0177503L0 22.9824L5.57922 22.9999L5.64865 0.0352542L0.0694345 0.0177503Z" fill="#304642"/>
</g>
</svg>
