<svg width="18" height="17" viewBox="0 0 18 17" fill="none" xmlns="http://www.w3.org/2000/svg">
<path d="M0.75 1.86137C0.75 1.24773 1.26167 0.750271 1.89286 0.750271H4.17857C4.80975 0.750271 5.32143 1.24773 5.32143 1.86137V4.08356C5.32143 4.69721 4.80975 5.19466 4.17857 5.19466H1.89286C1.26167 5.19466 0.75 4.69721 0.75 4.08356V1.86137Z" fill="white"/>
<path d="M12.1786 1.8611C12.1786 1.24746 12.6902 0.75 13.3214 0.75H15.6071C16.2383 0.75 16.75 1.24746 16.75 1.8611V4.08329C16.75 4.69694 16.2383 5.19439 15.6071 5.19439H13.3214C12.6902 5.19439 12.1786 4.69694 12.1786 4.08329V1.8611Z" fill="white"/>
<path d="M0.75 12.4167C0.75 11.8031 1.26167 11.3056 1.89286 11.3056H4.17857C4.80975 11.3056 5.32143 11.8031 5.32143 12.4167V14.6389C5.32143 15.2525 4.80975 15.75 4.17857 15.75H1.89286C1.26167 15.75 0.75 15.2525 0.75 14.6389V12.4167Z" fill="white"/>
<path d="M12.1786 12.4167C12.1786 11.8031 12.6902 11.3056 13.3214 11.3056H15.6071C16.2383 11.3056 16.75 11.8031 16.75 12.4167V14.6389C16.75 15.2525 16.2383 15.75 15.6071 15.75H13.3214C12.6902 15.75 12.1786 15.2525 12.1786 14.6389V12.4167Z" fill="white"/>
<path d="M3.03571 2.41683H14.4643L3.03571 13.5278H14.4643M1.89286 5.19466H4.17857C4.80975 5.19466 5.32143 4.69721 5.32143 4.08356V1.86137C5.32143 1.24773 4.80975 0.750271 4.17857 0.750271H1.89286C1.26167 0.750271 0.75 1.24773 0.75 1.86137V4.08356C0.75 4.69721 1.26167 5.19466 1.89286 5.19466ZM13.3214 5.19439H15.6071C16.2383 5.19439 16.75 4.69694 16.75 4.08329V1.8611C16.75 1.24746 16.2383 0.75 15.6071 0.75H13.3214C12.6902 0.75 12.1786 1.24746 12.1786 1.8611V4.08329C12.1786 4.69694 12.6902 5.19439 13.3214 5.19439ZM1.89286 15.75H4.17857C4.80975 15.75 5.32143 15.2525 5.32143 14.6389V12.4167C5.32143 11.8031 4.80975 11.3056 4.17857 11.3056H1.89286C1.26167 11.3056 0.75 11.8031 0.75 12.4167V14.6389C0.75 15.2525 1.26167 15.75 1.89286 15.75ZM13.3214 15.75H15.6071C16.2383 15.75 16.75 15.2525 16.75 14.6389V12.4167C16.75 11.8031 16.2383 11.3056 15.6071 11.3056H13.3214C12.6902 11.3056 12.1786 11.8031 12.1786 12.4167V14.6389C12.1786 15.2525 12.6902 15.75 13.3214 15.75Z" stroke="white" stroke-width="1.5" stroke-linecap="round" stroke-linejoin="round"/>
</svg>
