<svg width="82" height="99" viewBox="0 0 82 99" fill="none" xmlns="http://www.w3.org/2000/svg">
<path d="M56.2798 86.0338L56.3119 86.1669C57.4883 87.2329 60.3568 88.5784 62.4205 85.4324C62.0577 84.8668 61.8214 84.4336 61.5815 83.9938C61.1053 83.1208 60.9502 81.1683 61.1213 78.8041C61.4649 76.4335 62.0672 73.3114 63.6124 71.532C65.1278 69.7868 67.4395 68.3424 69.9005 64.9693C72.9089 60.8459 75.0674 56.8745 74.3185 54.8475C73.4302 52.4428 70.5872 46.4608 66.6485 42.4621C62.2575 38.0041 59.9874 36.0916 57.9234 33.967C54.4607 30.4024 51.7306 27.9464 50.0877 25.1924C48.6766 22.8268 46.6732 20.6934 47.7536 18.9505C48.2574 18.1378 50.031 18.2961 51.7208 17.0959C52.131 16.8046 52.4497 16.3714 52.5279 15.8623C52.6061 15.3532 52.5101 14.7434 52.1466 14.2785C51.4114 13.3382 48.7907 13.6819 48.1199 11.4516C47.8857 10.6728 47.7083 9.38371 48.1374 8.70802C49.3385 6.81668 51.4821 4.57004 50.2878 2.81453C49.893 2.2342 49.1283 1.58226 48.4857 1.26596C47.8431 0.949669 47.3178 0.913707 46.7062 1.16762C45.339 1.73517 43.5746 2.25822 43.2473 3.46786C42.4635 6.36545 43.5952 11.6311 41.7021 12.6701C41.3405 12.8685 40.7767 12.8676 40.5504 12.5078C40.0754 11.7527 39.7116 10.5509 38.7898 9.86127C38.3716 9.54835 37.899 9.46958 37.4598 9.57409C37.0206 9.67859 36.6268 9.95791 36.3799 10.459C36.1331 10.9601 35.891 11.6913 36.0794 12.246C36.7668 14.2692 38.0743 16.2516 37.639 19.473C37.2953 22.0163 36.8518 24.2749 35.4848 27.233C34.0989 30.2319 32.8925 32.357 32.1819 34.7576C31.4187 37.3358 30.0563 40.76 30.1058 46.031C30.1965 55.6795 30.2443 59.2822 31.6567 61.2709C33.4903 63.8528 36.3607 67.1637 37.9917 68.6604C39.4813 70.0275 42.1968 72.3035 45.8336 74.6195C48.2086 76.132 50.6897 76.347 53.3189 78.9981C54.9851 80.6782 55.5125 82.8597 56.2798 86.0338Z" fill="#FFF9DC" stroke="black" stroke-width="2" stroke-linecap="round"/>
<path d="M40.1855 59.3067C40.3825 59.9786 41.2124 61.7573 42.5442 63.4085C44.0492 65.2744 47.158 65.2588 50.188 65.2309C52.8254 65.2066 54.7735 63.1414 56.448 61.5335C57.6641 59.6832 58.2802 58.2637 58.5983 57.1932C58.78 56.6552 59.003 56.1281 59.352 54.6211" stroke="black" stroke-width="2" stroke-linecap="round"/>
<path d="M41.9097 42.6973C41.9097 42.9336 41.9097 43.597 42.0575 45.2505C42.2053 46.3623 42.501 48.0279 42.7736 49.4276C43.0462 50.8273 43.2867 51.9107 43.6539 53.5042" stroke="black" stroke-width="2" stroke-linecap="round"/>
<path d="M47.082 36.1865C47.9 41.4251 48.5643 45.0926 48.9325 46.8413C49.0576 47.6212 49.0576 48.1829 49.2527 49.0139C49.4478 49.8449 49.838 50.9283 50.3594 52.5218" stroke="black" stroke-width="2" stroke-linecap="round"/>
<path d="M47.0142 55.8467C47.0142 56.5095 47.0535 57.4975 47.338 58.5558C47.4624 59.0186 48.0327 59.1251 48.5251 59.1481C49.0175 59.1711 49.5392 59.0548 50.0721 58.9258C50.605 58.7968 51.1334 58.6586 51.7971 58.5163" stroke="black" stroke-width="2" stroke-linecap="round"/>
<path d="M77.0482 46.5094C75.8593 48.3519 75.4698 50.5886 75.2378 54.7841C76.2969 55.4336 77.4932 57.3323 78.0649 57.3233C78.6366 57.3143 79.3195 57.1417 79.8048 56.8524C80.2901 56.5632 80.6912 56.1815 80.7091 55.3807C80.7894 51.7906 80.8278 49.129 79.6701 47.0827C79.4087 46.6209 78.9573 46.2501 78.4679 46.1471C77.9785 46.0441 77.329 46.0742 77.0482 46.5094Z" fill="#FFF5C7" stroke="black" stroke-width="2" stroke-linecap="round"/>
<path d="M28.1858 60.6113C29.0888 60.5553 30.5971 61.115 31.3472 61.4725C30.7481 62.8152 33.2261 65.4689 33.0453 65.9763C32.8645 66.4838 32.6282 67.003 32.2869 67.3862C31.9456 67.7695 31.5124 68.0094 31.0929 67.9671C30.6734 67.9247 30.2137 67.6651 29.9203 67.2492C28.7718 65.6211 27.0224 63.8039 27.3339 61.5798C27.4009 61.1018 27.7398 60.639 28.1858 60.6113Z" fill="#FFF5C7" stroke="black" stroke-width="2" stroke-linecap="round"/>
<path d="M55.5701 83.4072C55.3086 83.7938 54.7578 85.0077 54.6891 86.7437C54.6732 87.1466 54.9458 87.3968 55.4888 87.6403C58.556 89.0155 61.2234 88.1619 62.4092 87.7431C63.0601 87.5131 63.4834 86.8623 63.8077 86.2456C64.0548 85.6554 64.1346 85.0472 63.9647 84.4289C63.8208 84.124 63.5601 83.8371 62.6594 83.4624" stroke="black" stroke-width="2" stroke-linecap="round"/>
<path d="M56.1609 82.1654C55.0243 82.9341 53.364 84.3823 49.5693 87.7728C47.5015 89.6204 45.6273 90.8282 43.9975 91.4354C42.4471 92.0132 40.8197 91.9673 38.033 92.0144C35.3597 92.0596 32.9311 90.6377 30.7199 89.5292C27.449 87.8896 23.1706 84.708 20.3586 83.1753C15.9807 81.4179 13.5781 80.9998 12.5458 80.9591C12.0607 80.9184 11.6542 80.8369 10.3286 80.7529" stroke="black" stroke-width="2" stroke-linecap="round"/>
<path d="M13.0127 88.4874C13.8064 88.3122 15.5294 88.6373 17.5816 88.8586C19.5189 89.0675 21.9977 90.3818 27.7321 92.9588C30.3441 94.1326 31.9374 95.4944 33.4651 96.1855C35.0084 96.8836 37.6854 97.4207 42.0394 97.5147C46.4684 97.6104 48.3336 96.8648 50.2242 96.0492C50.6275 95.867 50.9526 95.7383 51.2482 95.5563C51.5438 95.3742 51.8001 95.1429 52.0641 94.9046" stroke="black" stroke-width="2" stroke-linecap="round"/>
<path d="M10.6724 81.1934C10.979 82.0616 11.4025 83.0408 11.875 84.0435C12.2227 84.9082 12.5516 85.8383 12.9016 86.7895C13.0675 87.2162 13.2099 87.5294 13.6155 88.5425" stroke="black" stroke-width="2" stroke-linecap="round"/>
<path d="M8.02413 73.4673C9.63481 77.0999 14.1202 88.1076 14.4996 89.173C14.3687 89.6862 14.2416 90.0144 14.0804 90.3601C13.338 91.7009 12.6573 92.9634 11.7439 94.7074C10.5179 95.8118 9.14073 97.171 7.82489 96.6799C7.09317 96.4068 7.46544 93.5479 5.93121 93.4056C5.62862 93.3776 5.2846 93.6563 4.9162 93.6794C4.20378 93.7241 3.02355 93.5445 1.98922 92.7688C1.55483 92.443 1.3738 92.0976 1.24463 91.6263C0.962904 90.5983 0.813983 89.4983 1.42557 88.9235C2.085 88.3037 3.61875 87.734 3.21288 87.322C2.86034 86.9642 1.06758 86.1316 1.05357 84.4366C1.04698 83.6393 1.13067 82.5956 1.96165 82.2455C3.03496 81.7933 4.29646 81.7165 4.61799 81.112C4.92373 80.5372 4.28973 77.6176 5.32298 73.12C5.4918 72.3852 5.79145 72.2279 6.28272 72.3079C6.77399 72.3879 7.63113 72.581 8.02413 73.4673Z" fill="#FFF5C7" stroke="black" stroke-width="2" stroke-linecap="round"/>
</svg>
