<svg width="59" height="66" viewBox="0 0 59 66" fill="none" xmlns="http://www.w3.org/2000/svg">
<g filter="url(#filter0_d_850_6376)">
<mask id="path-1-inside-1_850_6376" fill="white">
<path d="M43.1832 4.18203C54.8276 11.8684 58.0366 27.5395 50.3504 39.184C44.8665 47.492 35.3182 51.5043 26.0676 50.331C25.4386 50.2512 24.7969 50.3423 24.2299 50.6259L10.6771 57.405C8.61165 58.4381 6.20235 56.8479 6.34038 54.5426L7.28777 38.7206C7.32264 38.1383 7.18265 37.5606 6.91117 37.0442C2.76454 29.1566 2.92532 19.3119 8.18125 11.3492C15.8676 -0.295279 31.5386 -3.50425 43.1832 4.18203Z"/>
</mask>
<path d="M43.1832 4.18203C54.8276 11.8684 58.0366 27.5395 50.3504 39.184C44.8665 47.492 35.3182 51.5043 26.0676 50.331C25.4386 50.2512 24.7969 50.3423 24.2299 50.6259L10.6771 57.405C8.61165 58.4381 6.20235 56.8479 6.34038 54.5426L7.28777 38.7206C7.32264 38.1383 7.18265 37.5606 6.91117 37.0442C2.76454 29.1566 2.92532 19.3119 8.18125 11.3492C15.8676 -0.295279 31.5386 -3.50425 43.1832 4.18203Z" fill="white"/>
<path d="M43.1832 4.18203L45.3868 0.843732L45.3868 0.843709L43.1832 4.18203ZM50.3504 39.184L53.6887 41.3875L53.6888 41.3875L50.3504 39.184ZM8.18125 11.3492L4.84294 9.14566L4.84292 9.14569L8.18125 11.3492ZM7.28777 38.7206L3.29492 38.4815L7.28777 38.7206ZM6.91117 37.0442L10.4517 35.1828V35.1828L6.91117 37.0442ZM10.6771 57.405L8.88767 53.8276L10.6771 57.405ZM26.0676 50.331L26.5709 46.3628L26.0676 50.331ZM24.2299 50.6259L26.0193 54.2033L24.2299 50.6259ZM43.1832 4.18203L40.9796 7.52033C50.7804 13.9897 53.4812 27.1796 47.0121 36.9805L50.3504 39.184L53.6888 41.3875C62.5919 27.8993 58.8748 9.74705 45.3868 0.843732L43.1832 4.18203ZM50.3504 39.184L47.0121 36.9805C42.4 43.9677 34.368 47.3517 26.5709 46.3628L26.0676 50.331L25.5643 54.2992C36.2684 55.6569 47.3331 51.0163 53.6887 41.3875L50.3504 39.184ZM24.2299 50.6259L22.4405 47.0485L8.88767 53.8276L10.6771 57.405L12.4665 60.9824L26.0193 54.2033L24.2299 50.6259ZM6.34038 54.5426L10.3332 54.7817L11.2806 38.9597L7.28777 38.7206L3.29492 38.4815L2.34753 54.3035L6.34038 54.5426ZM6.91117 37.0442L10.4517 35.1828C6.95604 28.5335 7.0989 20.25 11.5196 13.5528L8.18125 11.3492L4.84292 9.14569C-1.24826 18.3737 -1.42696 29.7798 3.37063 38.9055L6.91117 37.0442ZM8.18125 11.3492L11.5196 13.5528C17.9889 3.75194 31.1788 1.05107 40.9797 7.52036L43.1832 4.18203L45.3868 0.843709C31.8984 -8.05957 13.7463 -4.3425 4.84294 9.14566L8.18125 11.3492ZM7.28777 38.7206L11.2806 38.9597C11.3634 37.5779 11.0279 36.2789 10.4517 35.1828L6.91117 37.0442L3.37063 38.9055C3.33737 38.8423 3.28193 38.6986 3.29492 38.4815L7.28777 38.7206ZM10.6771 57.405L8.88767 53.8276C9.57614 53.4832 10.3792 54.0132 10.3332 54.7817L6.34038 54.5426L2.34753 54.3035C2.02545 59.6825 7.64715 63.393 12.4665 60.9824L10.6771 57.405ZM26.0676 50.331L26.5709 46.3628C25.2374 46.1936 23.7863 46.3753 22.4405 47.0485L24.2299 50.6259L26.0193 54.2033C25.8076 54.3092 25.6399 54.3088 25.5643 54.2992L26.0676 50.331Z" fill="#FF5A00" mask="url(#path-1-inside-1_850_6376)"/>
</g>
<defs>
<filter id="filter0_d_850_6376" x="0" y="0" width="58.5322" height="65.7266" filterUnits="userSpaceOnUse" color-interpolation-filters="sRGB">
<feFlood flood-opacity="0" result="BackgroundImageFix"/>
<feColorMatrix in="SourceAlpha" type="matrix" values="0 0 0 0 0 0 0 0 0 0 0 0 0 0 0 0 0 0 127 0" result="hardAlpha"/>
<feOffset dy="4"/>
<feGaussianBlur stdDeviation="2"/>
<feComposite in2="hardAlpha" operator="out"/>
<feColorMatrix type="matrix" values="0 0 0 0 0 0 0 0 0 0 0 0 0 0 0 0 0 0 0.25 0"/>
<feBlend mode="normal" in2="BackgroundImageFix" result="effect1_dropShadow_850_6376"/>
<feBlend mode="normal" in="SourceGraphic" in2="effect1_dropShadow_850_6376" result="shape"/>
</filter>
</defs>
</svg>
