<svg width="15" height="15" viewBox="0 0 15 15" fill="none" xmlns="http://www.w3.org/2000/svg">
<path d="M0.347221 12.1885C-0.115234 12.651 -0.115234 13.4008 0.347221 13.8632C0.809676 14.3257 1.55946 14.3257 2.02192 13.8632L1.18457 13.0259L0.347221 12.1885ZM14.2107 1.18397C14.2107 0.529962 13.6805 -0.000217977 13.0265 -0.000217598L2.36876 -0.000218061C1.71475 -0.000217387 1.18457 0.529963 1.18457 1.18397C1.18457 1.83798 1.71475 2.36816 2.36876 2.36816L11.8423 2.36816L11.8423 11.8417C11.8423 12.4957 12.3725 13.0259 13.0265 13.0259C13.6805 13.0259 14.2107 12.4957 14.2107 11.8417L14.2107 1.18397ZM1.18457 13.0259L2.02192 13.8632L13.8638 2.02132L13.0265 1.18397L12.1891 0.346624L0.347221 12.1885L1.18457 13.0259Z" fill="#304642"/>
</svg>
