<svg width="34" height="32" viewBox="0 0 34 32" fill="none" xmlns="http://www.w3.org/2000/svg">
<path d="M1.25 3.39865C1.25 2.21227 2.24137 1.25052 3.46429 1.25052H7.89286C9.11577 1.25052 10.1071 2.21227 10.1071 3.39865V7.69489C10.1071 8.88127 9.11577 9.84301 7.89286 9.84301H3.46429C2.24137 9.84301 1.25 8.88127 1.25 7.69489V3.39865Z" fill="white"/>
<path d="M23.3929 3.39812C23.3929 2.21175 24.3842 1.25 25.6071 1.25H30.0357C31.2586 1.25 32.25 2.21175 32.25 3.39812V7.69437C32.25 8.88074 31.2586 9.84249 30.0357 9.84249H25.6071C24.3842 9.84249 23.3929 8.88074 23.3929 7.69437V3.39812Z" fill="white"/>
<path d="M1.25 23.8056C1.25 22.6193 2.24137 21.6575 3.46429 21.6575H7.89286C9.11577 21.6575 10.1071 22.6193 10.1071 23.8056V28.1019C10.1071 29.2883 9.11577 30.25 7.89286 30.25H3.46429C2.24137 30.25 1.25 29.2883 1.25 28.1019V23.8056Z" fill="white"/>
<path d="M23.3929 23.8056C23.3929 22.6193 24.3842 21.6575 25.6071 21.6575H30.0357C31.2586 21.6575 32.25 22.6193 32.25 23.8056V28.1019C32.25 29.2883 31.2586 30.25 30.0357 30.25H25.6071C24.3842 30.25 23.3929 29.2883 23.3929 28.1019V23.8056Z" fill="white"/>
<path d="M5.67857 4.47254H27.8214L5.67857 25.9538H27.8214M3.46429 9.84301H7.89286C9.11577 9.84301 10.1071 8.88127 10.1071 7.69489V3.39865C10.1071 2.21227 9.11577 1.25052 7.89286 1.25052H3.46429C2.24137 1.25052 1.25 2.21227 1.25 3.39865V7.69489C1.25 8.88127 2.24137 9.84301 3.46429 9.84301ZM25.6071 9.84249H30.0357C31.2586 9.84249 32.25 8.88074 32.25 7.69437V3.39812C32.25 2.21175 31.2586 1.25 30.0357 1.25H25.6071C24.3842 1.25 23.3929 2.21175 23.3929 3.39812V7.69437C23.3929 8.88074 24.3842 9.84249 25.6071 9.84249ZM3.46429 30.25H7.89286C9.11577 30.25 10.1071 29.2883 10.1071 28.1019V23.8056C10.1071 22.6193 9.11577 21.6575 7.89286 21.6575H3.46429C2.24137 21.6575 1.25 22.6193 1.25 23.8056V28.1019C1.25 29.2883 2.24137 30.25 3.46429 30.25ZM25.6071 30.25H30.0357C31.2586 30.25 32.25 29.2883 32.25 28.1019V23.8056C32.25 22.6193 31.2586 21.6575 30.0357 21.6575H25.6071C24.3842 21.6575 23.3929 22.6193 23.3929 23.8056V28.1019C23.3929 29.2883 24.3842 30.25 25.6071 30.25Z" stroke="white" stroke-width="2.5" stroke-linecap="round" stroke-linejoin="round"/>
</svg>
