<svg width="38" height="32" viewBox="0 0 38 32" fill="none" xmlns="http://www.w3.org/2000/svg">
<path d="M7.98831 17.0867C9.49956 15.7818 14 11.5568 14 7.5C14 5.77609 13.3152 4.12279 12.0962 2.90381C10.8772 1.68482 9.22391 1 7.5 1C5.77609 1 4.12279 1.68482 2.90381 2.90381C1.68482 4.12279 1 5.77609 1 7.5C1 11.5568 5.50044 15.7818 7.01169 17.0867C7.15247 17.1926 7.32385 17.2498 7.5 17.2498C7.67615 17.2498 7.84753 17.1926 7.98831 17.0867Z" stroke="#CFCACA" stroke-width="2" stroke-linecap="round" stroke-linejoin="round"/>
<circle cx="7.5" cy="7.5" r="2.75" stroke="#CFCACA" stroke-width="1.5"/>
<path d="M28.3177 30.4489C30.3327 28.7091 36.3333 23.0758 36.3333 17.6667C36.3333 15.3681 35.4202 13.1637 33.7949 11.5384C32.1696 9.91309 29.9652 9 27.6667 9C25.3681 9 23.1637 9.91309 21.5384 11.5384C19.9131 13.1637 19 15.3681 19 17.6667C19 23.0758 25.0006 28.7091 27.0156 30.4489C27.2033 30.5901 27.4318 30.6664 27.6667 30.6664C27.9015 30.6664 28.13 30.5901 28.3177 30.4489Z" stroke="#CFCACA" stroke-width="2" stroke-linecap="round" stroke-linejoin="round"/>
<circle cx="27.75" cy="17.75" r="4.75" stroke="#CFCACA" stroke-width="2"/>
<path d="M7 21C8 23.6667 12.1 29.4 20.5 31" stroke="#CFCACA" stroke-width="2" stroke-linecap="round" stroke-dasharray="4 4"/>
</svg>
