<svg width="34" height="34" viewBox="0 0 34 34" fill="none" xmlns="http://www.w3.org/2000/svg">
<path d="M17.0003 17V12.75C17.0003 12.3743 16.8511 12.014 16.5854 11.7483C16.3197 11.4826 15.9594 11.3334 15.5837 11.3334H12.7503C12.3746 11.3334 12.0143 11.4826 11.7486 11.7483C11.4829 12.014 11.3337 12.3743 11.3337 12.75V17M22.667 28.3334V24.0834C22.667 23.7077 22.5177 23.3473 22.2521 23.0816C21.9864 22.816 21.626 22.6667 21.2503 22.6667H18.417C18.0413 22.6667 17.6809 22.816 17.4153 23.0816C17.1496 23.3473 17.0003 23.7077 17.0003 24.0834V28.3334M28.3337 31.1667V2.83337M5.66699 17H28.3337M5.66699 28.3334H28.3337M5.66699 2.83337V31.1667M5.66699 5.66671H28.3337" stroke="#CFCACA" stroke-width="2" stroke-linecap="round" stroke-linejoin="round"/>
</svg>
