<svg width="38" height="38" viewBox="0 0 38 38" fill="none" xmlns="http://www.w3.org/2000/svg">
<path d="M31.7526 25.3127H6.24825M28.5004 7.91663C29.3403 7.91663 30.1457 8.25026 30.7396 8.84412C31.3335 9.43799 31.6671 10.2434 31.6671 11.0833V24.5828C31.6669 25.0759 31.7818 25.5622 32.0028 26.003L33.6938 29.3708C33.8158 29.613 33.8736 29.8825 33.8616 30.1535C33.8496 30.4245 33.7681 30.6879 33.6251 30.9183C33.482 31.1488 33.2822 31.3386 33.0447 31.4697C32.8072 31.6007 32.54 31.6685 32.2688 31.6666H5.73209C5.46084 31.6685 5.19366 31.6007 4.95617 31.4697C4.71867 31.3386 4.51881 31.1488 4.37577 30.9183C4.23272 30.6879 4.15128 30.4245 4.13925 30.1535C4.12723 29.8825 4.18502 29.613 4.30709 29.3708L5.99809 26.003C6.21903 25.5622 6.33397 25.0759 6.33375 24.5828V11.0833C6.33375 10.2434 6.66738 9.43799 7.26125 8.84412C7.85511 8.25026 8.66057 7.91663 9.50042 7.91663H28.5004Z" stroke="#CFCACA" stroke-width="2" stroke-linecap="round" stroke-linejoin="round"/>
</svg>
