<svg width="34" height="34" viewBox="0 0 34 34" fill="none" xmlns="http://www.w3.org/2000/svg">
<path d="M15.583 24.0833L18.4163 26.9166C18.6954 27.1957 19.0267 27.417 19.3913 27.5681C19.7559 27.7191 20.1467 27.7968 20.5413 27.7968C20.936 27.7968 21.3268 27.7191 21.6914 27.5681C22.056 27.417 22.3873 27.1957 22.6663 26.9166C22.9454 26.6376 23.1668 26.3063 23.3178 25.9417C23.4688 25.5771 23.5465 25.1863 23.5465 24.7916C23.5465 24.397 23.4688 24.0062 23.3178 23.6416C23.1668 23.277 22.9454 22.9457 22.6663 22.6666" stroke="#CFCACA" stroke-width="2" stroke-linecap="round" stroke-linejoin="round"/>
<path d="M19.8327 19.8333L23.3743 23.375C23.9379 23.9386 24.7023 24.2552 25.4993 24.2552C26.2964 24.2552 27.0608 23.9386 27.6243 23.375C28.1879 22.8114 28.5046 22.047 28.5046 21.25C28.5046 20.453 28.1879 19.6886 27.6243 19.125L22.1277 13.6283C21.3308 12.8324 20.2506 12.3854 19.1243 12.3854C17.9981 12.3854 16.9179 12.8324 16.121 13.6283L14.8743 14.875C14.3108 15.4386 13.5464 15.7552 12.7493 15.7552C11.9523 15.7552 11.1879 15.4386 10.6243 14.875C10.0608 14.3114 9.74414 13.547 9.74414 12.75C9.74414 11.953 10.0608 11.1886 10.6243 10.625L14.6052 6.64415C15.8975 5.35519 17.5829 4.5341 19.3944 4.31086C21.206 4.08762 23.0402 4.47499 24.6068 5.41165L25.2727 5.80831C25.8759 6.17238 26.5931 6.29865 27.2843 6.16248L29.7493 5.66665" stroke="#CFCACA" stroke-width="2" stroke-linecap="round" stroke-linejoin="round"/>
<path d="M29.7497 4.24976L31.1663 19.8331H28.333M4.24967 4.24976L2.83301 19.8331L12.0413 29.0414C12.6049 29.605 13.3693 29.9216 14.1663 29.9216C14.9634 29.9216 15.7278 29.605 16.2913 29.0414C16.8549 28.4778 17.1715 27.7135 17.1715 26.9164C17.1715 26.1194 16.8549 25.355 16.2913 24.7914M4.24967 5.66642H15.583" stroke="#CFCACA" stroke-width="2" stroke-linecap="round" stroke-linejoin="round"/>
</svg>
